# xmcd
#
# Track frame offsets: 
#        150
#        26351
#        42937
#        54804
#        78473
#        91746
#        110710
#        123911
#        138431
#        150308
#        186089
#
# Disc length: 2639 seconds
#
# Revision: 5
# Processed by: cddbd v1.5.2PL0 Copyright (c) Steve Scherf et al.
# Submitted via: ExactAudioCopyFreeDBPlugin 1.0
#
DISCID=7d0a4d0b
DTITLE=Matt Sweeney and Bonnie 'Prince' Billy - Superwolf
DYEAR=2005
DGENRE=Folk/Rock
TTITLE0=My Home is the Sea
TTITLE1=Beast For Thee
TTITLE2=What Are You?
TTITLE3=Goat and Ram
TTITLE4=Lift Us Up
TTITLE5=Rudy Foolish
TTITLE6=Bed is For Sleeping
TTITLE7=Only Someone Running
TTITLE8=Death in the Sea
TTITLE9=Blood Embrace
TTITLE10=I Gave You
EXTD=YEAR: 2005
EXTT0=
EXTT1=
EXTT2=
EXTT3=
EXTT4=
EXTT5=
EXTT6=
EXTT7=
EXTT8=
EXTT9=
EXTT10=
PLAYORDER=
